<svg xmlns="http://www.w3.org/2000/svg" fill="none" viewBox="0 0 283 64"><path fill="black" d="m141.04 16 c0 11 9 20 20 20s20-9 20-20-9-20-20-20-20 9-20 20zm22.21-9c-4.28 0-7.68 3.43-7.68 7.68 0 4.25 3.4 7.68 7.68 7.68s7.68-3.43 7.68-7.68c0-4.25-3.4-7.68-7.68-7.68zm117.14-.02c0 4.06-3.43 7.4-7.65 7.4s-7.65-3.34-7.65-7.4 3.43-7.4 7.65-7.4 7.65 3.34 7.65 7.4zm-22.6-1.14c-.77-.77-1.86-1.24-3.05-1.24s-2.28.47-3.04 1.24L246.4 12l-7.33-7.33c-.77-.77-1.86-1.24-3.05-1.24s-2.28.47-3.04 1.24c-.77.77-1.24 1.86-1.24 3.05s.47 2.28 1.24 3.04L239.31 17l-6.33 6.33c-.77.77-1.24 1.86-1.24 3.05s.47 2.28 1.24 3.04c.77.77 1.86 1.24 3.05 1.24s2.28-.47 3.04-1.24L246.4 22l7.33 7.33c.77.77 1.86 1.24 3.05 1.24s2.28-.47 3.04-1.24c.77-.77 1.24-1.86 1.24-3.05s-.47-2.28-1.24-3.04L253.49 17l6.33-6.33c.77-.77 1.24-1.86 1.24-3.05s-.47-2.28-1.24-3.04zM79.74 4.59l-7.28 7.28 7.28 7.28 1.77-1.77L75.02 11.87l6.49-5.51L79.74 4.59zm38.86 0l-1.77 1.77 6.49 5.51-6.49 5.51 1.77 1.77 7.28-7.28-7.28-7.28zM85.33 29.74c-1.15 0-2.07-.92-2.07-2.07s.92-2.07 2.07-2.07 2.07.92 2.07 2.07-.92 2.07-2.07 2.07zm5.98-4.07c-.51-.51-1.18-.8-1.9-.8s-1.39.29-1.9.8L85.33 27.85l-2.18-2.18c-.51-.51-1.18-.8-1.9-.8s-1.39.29-1.9.8c-.51.51-.8 1.18-.8 1.9s.29 1.39.8 1.9l2.18 2.18-2.18 2.18c-.51.51-.8 1.18-.8 1.9s.29 1.39.8 1.9c.51.51 1.18.8 1.9.8s1.39-.29 1.9-.8l2.18-2.18 2.18 2.18c.51.51 1.18.8 1.9.8s1.39-.29 1.9-.8c.51-.51.8-1.18.8-1.9s-.29-1.39-.8-1.9L89.13 29.74l2.18-2.18c.51-.51.8-1.18.8-1.9s-.29-1.39-.8-1.9z"/></svg>
